<svg width="160" height="160" viewBox="0 0 160 160" fill="none" xmlns="http://www.w3.org/2000/svg">
<g clip-path="url(#clip0)">
<path d="M146.666 20H136.666C134.824 20 133.333 21.4909 133.333 23.3334C133.333 25.1759 134.824 26.6669 136.666 26.6669H146.666C150.345 26.6669 153.333 29.6584 153.333 33.3334V43.3334C153.333 45.1759 154.824 46.6669 156.666 46.6669C158.509 46.6669 160 45.1759 160 43.3334V33.3334C160 25.9797 154.017 20 146.666 20Z" fill="#303C42"/>
<path d="M3.33344 46.6666C5.17594 46.6666 6.66687 45.1756 6.66687 43.3331V33.3331C6.66687 29.6581 9.65531 26.6666 13.3334 26.6666H23.3334C25.1759 26.6666 26.6669 25.1756 26.6669 23.3331C26.6666 21.4909 25.1759 20 23.3334 20H13.3334C5.98312 20 0 25.9797 0 33.3334V43.3334C0 45.1759 1.49094 46.6666 3.33344 46.6666Z" fill="#303C42"/>
<path d="M156.666 113.333C154.824 113.333 153.333 114.824 153.333 116.667V126.667C153.333 130.342 150.345 133.333 146.666 133.333H136.666C134.824 133.333 133.333 134.824 133.333 136.667C133.333 138.509 134.824 140 136.666 140H146.666C154.017 140 160 134.02 160 126.667V116.667C160 114.824 158.509 113.333 156.666 113.333Z" fill="#303C42"/>
<path d="M23.3334 133.333H13.3334C9.655 133.333 6.66687 130.342 6.66687 126.667V116.667C6.66687 114.824 5.17594 113.333 3.33344 113.333C1.49094 113.333 0 114.824 0 116.667V126.667C0 134.02 5.98312 140 13.3334 140H23.3334C25.1759 140 26.6669 138.509 26.6669 136.667C26.6669 134.824 25.1759 133.333 23.3334 133.333Z" fill="#303C42"/>
<path d="M23.3334 40C21.4909 40 20 41.4909 20 43.3334V116.667C20 118.509 21.4909 120 23.3334 120C25.1759 120 26.6669 118.509 26.6669 116.667V43.3334C26.6666 41.4909 25.1759 40 23.3334 40Z" fill="#303C42"/>
<path d="M89.9999 40C88.1574 40 86.6665 41.4909 86.6665 43.3334V116.667C86.6665 118.509 88.1574 120 89.9999 120C91.8424 120 93.3334 118.509 93.3334 116.667V43.3334C93.3334 41.4909 91.8424 40 89.9999 40Z" fill="#303C42"/>
<path d="M136.666 40C134.824 40 133.333 41.4909 133.333 43.3334V116.667C133.333 118.509 134.824 120 136.666 120C138.509 120 140 118.509 140 116.667V43.3334C140 41.4909 138.509 40 136.666 40Z" fill="#303C42"/>
<path d="M43.3334 40C41.4909 40 40 41.4909 40 43.3334V96.6669C40 98.5094 41.4909 100 43.3334 100C45.1759 100 46.6669 98.5094 46.6669 96.6669V43.3334C46.6666 41.4909 45.1759 40 43.3334 40Z" fill="#303C42"/>
<path d="M56.6664 40C54.8239 40 53.333 41.4909 53.333 43.3334V96.6669C53.333 98.5094 54.8239 100 56.6664 100C58.5089 100 59.9999 98.5094 59.9999 96.6669V43.3334C59.9999 41.4909 58.5089 40 56.6664 40Z" fill="#303C42"/>
<path d="M69.9999 40C68.1574 40 66.6665 41.4909 66.6665 43.3334V96.6669C66.6665 98.5094 68.1574 100 69.9999 100C71.8424 100 73.3334 98.5094 73.3334 96.6669V43.3334C73.3334 41.4909 71.8424 40 69.9999 40Z" fill="#303C42"/>
<path d="M103.333 40C101.491 40 100 41.4909 100 43.3334V96.6669C100 98.5094 101.491 100 103.333 100C105.176 100 106.667 98.5094 106.667 96.6669V43.3334C106.667 41.4909 105.176 40 103.333 40Z" fill="#303C42"/>
<path d="M123.333 40C121.491 40 120 41.4909 120 43.3334V96.6669C120 98.5094 121.491 100 123.333 100C125.176 100 126.667 98.5094 126.667 96.6669V43.3334C126.667 41.4909 125.176 40 123.333 40Z" fill="#303C42"/>
<path d="M123.333 106.667C121.491 106.667 120 108.158 120 110V116.667C120 118.509 121.491 120 123.333 120C125.176 120 126.667 118.509 126.667 116.667V110C126.667 108.158 125.176 106.667 123.333 106.667Z" fill="#303C42"/>
<path d="M103.333 106.667C101.491 106.667 100 108.158 100 110V116.667C100 118.509 101.491 120 103.333 120C105.176 120 106.667 118.509 106.667 116.667V110C106.667 108.158 105.176 106.667 103.333 106.667Z" fill="#303C42"/>
<path d="M69.9999 106.667C68.1574 106.667 66.6665 108.158 66.6665 110V116.667C66.6665 118.509 68.1574 120 69.9999 120C71.8424 120 73.3334 118.509 73.3334 116.667V110C73.3334 108.158 71.8424 106.667 69.9999 106.667Z" fill="#303C42"/>
<path d="M56.6664 106.667C54.8239 106.667 53.333 108.158 53.333 110V116.667C53.333 118.509 54.8239 120 56.6664 120C58.5089 120 59.9999 118.509 59.9999 116.667V110C59.9999 108.158 58.5089 106.667 56.6664 106.667Z" fill="#303C42"/>
<path d="M43.3334 106.667C41.4909 106.667 40 108.158 40 110V116.667C40 118.509 41.4909 120 43.3334 120C45.1759 120 46.6669 118.509 46.6669 116.667V110C46.6666 108.158 45.1759 106.667 43.3334 106.667Z" fill="#303C42"/>
<path d="M156.667 73.3334H3.33344C1.49094 73.3334 0 74.8244 0 76.6666C0 78.5091 1.49094 80 3.33344 80H156.667C158.509 80 160 78.5091 160 76.6666C160 74.8244 158.509 73.3334 156.667 73.3334Z" fill="#019B77"/>
<path d="M43.3334 106.667C41.4909 106.667 40 108.158 40 110V116.667C40 118.509 41.4909 120 43.3334 120C45.1759 120 46.6669 118.509 46.6669 116.667V110C46.6666 108.158 45.1759 106.667 43.3334 106.667ZM56.6666 106.667C54.8241 106.667 53.3331 108.158 53.3331 110V116.667C53.3331 118.509 54.8241 120 56.6666 120C58.5091 120 60 118.509 60 116.667V110C60 108.158 58.5091 106.667 56.6666 106.667ZM70 106.667C68.1575 106.667 66.6666 108.158 66.6666 110V116.667C66.6666 118.509 68.1575 120 70 120C71.8425 120 73.3334 118.509 73.3334 116.667V110C73.3334 108.158 71.8425 106.667 70 106.667ZM23.3334 133.333H13.3334C9.655 133.333 6.66687 130.342 6.66687 126.667V116.667C6.66687 114.824 5.17594 113.333 3.33344 113.333C1.49094 113.333 0 114.824 0 116.667V126.667C0 134.02 5.98312 140 13.3334 140H23.3334C25.1759 140 26.6669 138.509 26.6669 136.667C26.6669 134.824 25.1759 133.333 23.3334 133.333ZM3.33344 46.6666C5.17594 46.6666 6.66687 45.1756 6.66687 43.3331V33.3331C6.66687 29.6581 9.65531 26.6666 13.3334 26.6666H23.3334C25.1759 26.6666 26.6669 25.1756 26.6669 23.3331C26.6666 21.4909 25.1759 20 23.3334 20H13.3334C5.98312 20 0 25.9797 0 33.3334V43.3334C0 45.1759 1.49094 46.6666 3.33344 46.6666ZM156.667 73.3334H140V43.3334C140 41.4909 138.509 40 136.667 40C134.824 40 133.333 41.4909 133.333 43.3334V73.3334H126.667V43.3334C126.667 41.4909 125.176 40 123.333 40C121.491 40 120 41.4909 120 43.3334V73.3334H106.666V43.3334C106.666 41.4909 105.175 40 103.333 40C101.49 40 99.9994 41.4909 99.9994 43.3334V73.3334H93.3328V43.3334C93.3328 41.4909 91.8419 40 89.9994 40C88.1569 40 86.6659 41.4909 86.6659 43.3334V73.3334H73.3325V43.3334C73.3325 41.4909 71.8416 40 69.9991 40C68.1566 40 66.6656 41.4909 66.6656 43.3334V73.3334H60V43.3334C60 41.4909 58.5091 40 56.6666 40C54.8241 40 53.3331 41.4909 53.3331 43.3334V73.3334H46.6666V43.3334C46.6666 41.4909 45.1756 40 43.3331 40C41.4906 40 40 41.4909 40 43.3334V73.3334H26.6666V43.3334C26.6666 41.4909 25.1756 40 23.3331 40C21.4909 40 20 41.4909 20 43.3334V73.3334H3.33344C1.49094 73.3334 0 74.8244 0 76.6666C0 78.5091 1.49094 80 3.33344 80H20V116.667C20 118.509 21.4909 120 23.3334 120C25.1759 120 26.6669 118.509 26.6669 116.667V80H40V96.6666C40 98.5091 41.4909 100 43.3334 100C45.1759 100 46.6669 98.5091 46.6669 96.6666V80H53.3334V96.6666C53.3334 98.5091 54.8244 100 56.6669 100C58.5094 100 60.0003 98.5091 60.0003 96.6666V80H66.6669V96.6666C66.6669 98.5091 68.1578 100 70.0003 100C71.8428 100 73.3337 98.5091 73.3337 96.6666V80H86.6672V116.667C86.6672 118.509 88.1581 120 90.0006 120C91.8431 120 93.3341 118.509 93.3341 116.667V80H100V96.6666C100 98.5091 101.491 100 103.333 100C105.176 100 106.667 98.5091 106.667 96.6666V80H120V96.6666C120 98.5091 121.491 100 123.333 100C125.176 100 126.667 98.5091 126.667 96.6666V80H133.333V116.667C133.333 118.509 134.824 120 136.667 120C138.509 120 140 118.509 140 116.667V80H156.667C158.509 80 160 78.5091 160 76.6666C160 74.8244 158.509 73.3334 156.667 73.3334ZM146.667 20H136.667C134.824 20 133.333 21.4909 133.333 23.3334C133.333 25.1759 134.824 26.6669 136.667 26.6669H146.667C150.345 26.6669 153.333 29.6584 153.333 33.3334V43.3334C153.333 45.1759 154.824 46.6669 156.667 46.6669C158.509 46.6669 160 45.1759 160 43.3334V33.3334C160 25.9797 154.017 20 146.667 20ZM103.333 106.667C101.491 106.667 100 108.158 100 110V116.667C100 118.509 101.491 120 103.333 120C105.176 120 106.667 118.509 106.667 116.667V110C106.667 108.158 105.176 106.667 103.333 106.667ZM156.667 113.333C154.824 113.333 153.333 114.824 153.333 116.667V126.667C153.333 130.342 150.345 133.333 146.667 133.333H136.667C134.824 133.333 133.333 134.824 133.333 136.667C133.333 138.509 134.824 140 136.667 140H146.667C154.017 140 160 134.02 160 126.667V116.667C160 114.824 158.509 113.333 156.667 113.333ZM123.333 106.667C121.491 106.667 120 108.158 120 110V116.667C120 118.509 121.491 120 123.333 120C125.176 120 126.667 118.509 126.667 116.667V110C126.667 108.158 125.176 106.667 123.333 106.667Z" fill="url(#paint0_linear)"/>
</g>
<defs>
<linearGradient id="paint0_linear" x1="-4.71665" y1="40.5013" x2="164.717" y2="119.512" gradientUnits="userSpaceOnUse">
<stop stop-color="white" stop-opacity="0.2"/>
<stop offset="1" stop-color="white" stop-opacity="0"/>
</linearGradient>
<clipPath id="clip0">
<rect width="160" height="160" fill="white"/>
</clipPath>
</defs>
</svg>
